<?xml version="1.0" encoding="UTF-8" standalone="no"?>
<svg
   xmlns:dc="http://purl.org/dc/elements/1.1/"
   xmlns:cc="http://creativecommons.org/ns#"
   xmlns:rdf="http://www.w3.org/1999/02/22-rdf-syntax-ns#"
   xmlns:svg="http://www.w3.org/2000/svg"
   xmlns="http://www.w3.org/2000/svg"
   xmlns:sodipodi="http://sodipodi.sourceforge.net/DTD/sodipodi-0.dtd"
   xmlns:inkscape="http://www.inkscape.org/namespaces/inkscape"
   id="svg4155"
   version="1.1"
   inkscape:version="0.92.5 (2060ec1f9f, 2020-04-08)"
   xml:space="preserve"
   width="14.765cm"
   height="5.7963901cm"
   viewBox="0 0 523.16933 205.38389"
   sodipodi:docname="scheme.svg"><metadata
     id="metadata4161"><rdf:RDF><cc:Work
         rdf:about=""><dc:format>image/svg+xml</dc:format><dc:type
           rdf:resource="http://purl.org/dc/dcmitype/StillImage" /><dc:title /></cc:Work></rdf:RDF></metadata><defs
     id="defs4159"><inkscape:perspective
       sodipodi:type="inkscape:persp3d"
       inkscape:vp_x="0 : 102.69195 : 1"
       inkscape:vp_y="0 : 1000 : 0"
       inkscape:vp_z="523.16933 : 102.69195 : 1"
       inkscape:persp3d-origin="261.58466 : 68.461297 : 1"
       id="perspective516" /><marker
       inkscape:isstock="true"
       style="overflow:visible;"
       id="marker103520"
       refX="0.0"
       refY="0.0"
       orient="auto"
       inkscape:stockid="Arrow1Mend"><path
         transform="scale(0.4) rotate(180) translate(10,0)"
         style="fill-rule:evenodd;stroke:#00aa00;stroke-width:1pt;stroke-opacity:1;fill:#00aa00;fill-opacity:1"
         d="M 0.0,0.0 L 5.0,-5.0 L -12.5,0.0 L 5.0,5.0 L 0.0,0.0 z "
         id="path103518" /></marker><marker
       inkscape:stockid="Arrow1Send"
       orient="auto"
       refY="0"
       refX="0"
       id="Arrow1Send"
       style="overflow:visible"
       inkscape:isstock="true"><path
         id="path9176"
         d="M 0,0 5,-5 -12.5,0 5,5 0,0 Z"
         style="fill:#000000;fill-opacity:1;fill-rule:evenodd;stroke:#000000;stroke-width:1pt;stroke-opacity:1"
         transform="matrix(-0.2,0,0,-0.2,-1.2,0)"
         inkscape:connector-curvature="0" /></marker><marker
       inkscape:stockid="Arrow2Sstart"
       orient="auto"
       refY="0"
       refX="0"
       id="Arrow2Sstart"
       style="overflow:visible"
       inkscape:isstock="true"><path
         id="path9191"
         style="fill:#000000;fill-opacity:1;fill-rule:evenodd;stroke:#000000;stroke-width:0.625;stroke-linejoin:round;stroke-opacity:1"
         d="M 8.7185878,4.0337352 -2.2072895,0.01601326 8.7185884,-4.0017078 c -1.7454984,2.3720609 -1.7354408,5.6174519 -6e-7,8.035443 z"
         transform="matrix(0.3,0,0,0.3,-0.69,0)"
         inkscape:connector-curvature="0" /></marker><marker
       inkscape:stockid="Arrow1Mstart"
       orient="auto"
       refY="0"
       refX="0"
       id="Arrow1Mstart"
       style="overflow:visible"
       inkscape:isstock="true"><path
         id="path9167"
         d="M 0,0 5,-5 -12.5,0 5,5 0,0 Z"
         style="fill:#000000;fill-opacity:1;fill-rule:evenodd;stroke:#000000;stroke-width:1pt;stroke-opacity:1"
         transform="matrix(0.4,0,0,0.4,4,0)"
         inkscape:connector-curvature="0" /></marker><marker
       inkscape:stockid="Arrow1Lstart"
       orient="auto"
       refY="0"
       refX="0"
       id="Arrow1Lstart"
       style="overflow:visible"
       inkscape:isstock="true"><path
         id="path9161"
         d="M 0,0 5,-5 -12.5,0 5,5 0,0 Z"
         style="fill:#000000;fill-opacity:1;fill-rule:evenodd;stroke:#000000;stroke-width:1pt;stroke-opacity:1"
         transform="matrix(0.8,0,0,0.8,10,0)"
         inkscape:connector-curvature="0" /></marker><marker
       inkscape:stockid="Arrow2Sstart"
       orient="auto"
       refY="0"
       refX="0"
       id="Arrow2Sstart-0"
       style="overflow:visible"
       inkscape:isstock="true"><path
         inkscape:connector-curvature="0"
         id="path9191-0"
         style="fill:#000000;fill-opacity:1;fill-rule:evenodd;stroke:#000000;stroke-width:0.625;stroke-linejoin:round;stroke-opacity:1"
         d="M 8.7185878,4.0337352 -2.2072895,0.01601326 8.7185884,-4.0017078 c -1.7454984,2.3720609 -1.7354408,5.6174519 -6e-7,8.035443 z"
         transform="matrix(0.3,0,0,0.3,-0.69,0)" /></marker><marker
       inkscape:stockid="Arrow1Send"
       orient="auto"
       refY="0"
       refX="0"
       id="Arrow1Send-5"
       style="overflow:visible"
       inkscape:isstock="true"><path
         inkscape:connector-curvature="0"
         id="path9176-7"
         d="M 0,0 5,-5 -12.5,0 5,5 0,0 Z"
         style="fill:#000000;fill-opacity:1;fill-rule:evenodd;stroke:#000000;stroke-width:1pt;stroke-opacity:1"
         transform="matrix(-0.2,0,0,-0.2,-1.2,0)" /></marker><g
       id="id-c57e3ebb-51a8-430d-a41f-50de90d1970b-5"><symbol
         overflow="visible"
         id="id-050a2d08-e5b9-48ac-81f9-4cc6be9109ae-2"><path
           style="stroke:none"
           d=""
           id="id-d6f76916-0ca0-486f-9c17-e0849ae2d342-2"
           inkscape:connector-curvature="0" /></symbol><symbol
         overflow="visible"
         id="id-96461fb8-66bb-49d3-8030-bc62e15c2168-7"><path
           style="stroke:none"
           d="m 7.578125,-6.921875 c 0,-0.03125 -0.015625,-0.109375 -0.109375,-0.109375 -0.03125,0 -0.046875,0.015625 -0.15625,0.125 L 6.625,-6.140625 C 6.53125,-6.28125 6.078125,-7.03125 4.96875,-7.03125 2.734375,-7.03125 0.5,-4.828125 0.5,-2.515625 0.5,-0.875 1.671875,0.21875 3.203125,0.21875 c 0.859375,0 1.625,-0.390625 2.15625,-0.859375 0.921875,-0.8125 1.09375,-1.71875 1.09375,-1.75 C 6.453125,-2.5 6.34375,-2.5 6.328125,-2.5 c -0.0625,0 -0.109375,0.03125 -0.125,0.109375 -0.09375,0.28125 -0.328125,1 -1.015625,1.578125 -0.6875,0.546875 -1.3125,0.71875 -1.828125,0.71875 -0.890625,0 -1.953125,-0.515625 -1.953125,-2.0625 0,-0.578125 0.203125,-2.1875 1.203125,-3.359375 0.609375,-0.703125 1.546875,-1.203125 2.4375,-1.203125 1.015625,0 1.609375,0.765625 1.609375,1.921875 0,0.40625 -0.03125,0.40625 -0.03125,0.515625 0,0.09375 0.109375,0.09375 0.140625,0.09375 0.125,0 0.125,-0.015625 0.1875,-0.203125 z m 0,0"
           id="id-9b161e4c-032d-468d-ad25-181a8ab74624-3"
           inkscape:connector-curvature="0" /></symbol><symbol
         overflow="visible"
         id="id-24d5e1a4-d5bf-4fee-b306-1bafebee8859-7"><path
           style="stroke:none"
           d=""
           id="id-46cdfcd2-eaeb-4a80-a5f8-ad2528c8a478-9"
           inkscape:connector-curvature="0" /></symbol><symbol
         overflow="visible"
         id="id-dd665b7b-55af-44b8-a867-7e71ee6c26ce-0"><path
           style="stroke:none"
           d="m 2.328125,-4.4375 c 0,-0.1875 0,-0.1875 -0.203125,-0.1875 -0.453125,0.4375 -1.078125,0.4375 -1.359375,0.4375 v 0.25 c 0.15625,0 0.625,0 1,-0.1875 v 3.546875 c 0,0.234375 0,0.328125 -0.6875,0.328125 H 0.8125 V 0 c 0.125,0 0.984375,-0.03125 1.234375,-0.03125 0.21875,0 1.09375,0.03125 1.25,0.03125 V -0.25 H 3.03125 c -0.703125,0 -0.703125,-0.09375 -0.703125,-0.328125 z m 0,0"
           id="id-c947a6a5-c837-47d3-89e1-9d8946d64c03-2"
           inkscape:connector-curvature="0" /></symbol></g><g
       id="id-41adebf4-89aa-4183-8d3f-25d425c3997b-2"><symbol
         overflow="visible"
         id="id-422cdb3f-c48f-4c3f-98e5-69afc5b169dd-7"><path
           style="stroke:none"
           d=""
           id="id-08b32b35-422c-4e2a-ae71-2a668ba1d383-0"
           inkscape:connector-curvature="0" /></symbol><symbol
         overflow="visible"
         id="id-6b74c21c-a5b5-4142-b649-d12f91fe0a8f-3"><path
           style="stroke:none"
           d="M 6.265625,-5.671875 C 6.75,-6.453125 7.171875,-6.484375 7.53125,-6.5 c 0.125,-0.015625 0.140625,-0.171875 0.140625,-0.1875 0,-0.078125 -0.0625,-0.125 -0.140625,-0.125 -0.25,0 -0.546875,0.03125 -0.8125,0.03125 -0.328125,0 -0.671875,-0.03125 -0.984375,-0.03125 -0.0625,0 -0.1875,0 -0.1875,0.1875 0,0.109375 0.078125,0.125 0.15625,0.125 0.265625,0.015625 0.453125,0.125 0.453125,0.328125 0,0.15625 -0.140625,0.375 -0.140625,0.375 l -3.0625,4.875 -0.6875,-5.28125 C 2.265625,-6.375 2.5,-6.5 2.953125,-6.5 c 0.140625,0 0.25,0 0.25,-0.203125 0,-0.078125 -0.078125,-0.109375 -0.125,-0.109375 -0.40625,0 -0.828125,0.03125 -1.25,0.03125 -0.171875,0 -0.359375,0 -0.546875,0 -0.171875,0 -0.359375,-0.03125 -0.53125,-0.03125 -0.078125,0 -0.1875,0 -0.1875,0.1875 0,0.125 0.078125,0.125 0.25,0.125 0.546875,0 0.5625,0.09375 0.59375,0.34375 L 2.1875,-0.015625 C 2.21875,0.1875 2.265625,0.21875 2.390625,0.21875 c 0.15625,0 0.203125,-0.046875 0.28125,-0.171875 z m 0,0"
           id="id-374c5612-cc04-4ffa-9057-e3e216c3290a-9"
           inkscape:connector-curvature="0" /></symbol><symbol
         overflow="visible"
         id="id-63935be5-811f-4586-8fd6-bdb5ba6600f6-9"><path
           style="stroke:none"
           d=""
           id="id-6b6a721f-a24f-46bd-82c3-d2a190bc84e1-9"
           inkscape:connector-curvature="0" /></symbol><symbol
         overflow="visible"
         id="id-5011b713-a77a-420f-aa53-dd5c37eb2dbb-1"><path
           style="stroke:none"
           d="m 2.328125,-4.4375 c 0,-0.1875 0,-0.1875 -0.203125,-0.1875 -0.453125,0.4375 -1.078125,0.4375 -1.359375,0.4375 v 0.25 c 0.15625,0 0.625,0 1,-0.1875 v 3.546875 c 0,0.234375 0,0.328125 -0.6875,0.328125 H 0.8125 V 0 c 0.125,0 0.984375,-0.03125 1.234375,-0.03125 0.21875,0 1.09375,0.03125 1.25,0.03125 V -0.25 H 3.03125 c -0.703125,0 -0.703125,-0.09375 -0.703125,-0.328125 z m 0,0"
           id="id-40da6082-00de-4bb7-8252-96ad65bea38b-7"
           inkscape:connector-curvature="0" /></symbol></g><g
       id="id-41adebf4-89aa-4183-8d3f-25d425c3997b-4"><symbol
         overflow="visible"
         id="id-422cdb3f-c48f-4c3f-98e5-69afc5b169dd-8"><path
           style="stroke:none"
           d=""
           id="id-08b32b35-422c-4e2a-ae71-2a668ba1d383-04"
           inkscape:connector-curvature="0" /></symbol><symbol
         overflow="visible"
         id="id-6b74c21c-a5b5-4142-b649-d12f91fe0a8f-6"><path
           style="stroke:none"
           d="M 6.265625,-5.671875 C 6.75,-6.453125 7.171875,-6.484375 7.53125,-6.5 c 0.125,-0.015625 0.140625,-0.171875 0.140625,-0.1875 0,-0.078125 -0.0625,-0.125 -0.140625,-0.125 -0.25,0 -0.546875,0.03125 -0.8125,0.03125 -0.328125,0 -0.671875,-0.03125 -0.984375,-0.03125 -0.0625,0 -0.1875,0 -0.1875,0.1875 0,0.109375 0.078125,0.125 0.15625,0.125 0.265625,0.015625 0.453125,0.125 0.453125,0.328125 0,0.15625 -0.140625,0.375 -0.140625,0.375 l -3.0625,4.875 -0.6875,-5.28125 C 2.265625,-6.375 2.5,-6.5 2.953125,-6.5 c 0.140625,0 0.25,0 0.25,-0.203125 0,-0.078125 -0.078125,-0.109375 -0.125,-0.109375 -0.40625,0 -0.828125,0.03125 -1.25,0.03125 -0.171875,0 -0.359375,0 -0.546875,0 -0.171875,0 -0.359375,-0.03125 -0.53125,-0.03125 -0.078125,0 -0.1875,0 -0.1875,0.1875 0,0.125 0.078125,0.125 0.25,0.125 0.546875,0 0.5625,0.09375 0.59375,0.34375 L 2.1875,-0.015625 C 2.21875,0.1875 2.265625,0.21875 2.390625,0.21875 c 0.15625,0 0.203125,-0.046875 0.28125,-0.171875 z m 0,0"
           id="id-374c5612-cc04-4ffa-9057-e3e216c3290a-0"
           inkscape:connector-curvature="0" /></symbol><symbol
         overflow="visible"
         id="id-63935be5-811f-4586-8fd6-bdb5ba6600f6-3"><path
           style="stroke:none"
           d=""
           id="id-6b6a721f-a24f-46bd-82c3-d2a190bc84e1-2"
           inkscape:connector-curvature="0" /></symbol><symbol
         overflow="visible"
         id="id-5011b713-a77a-420f-aa53-dd5c37eb2dbb-6"><path
           style="stroke:none"
           d="m 2.328125,-4.4375 c 0,-0.1875 0,-0.1875 -0.203125,-0.1875 -0.453125,0.4375 -1.078125,0.4375 -1.359375,0.4375 v 0.25 c 0.15625,0 0.625,0 1,-0.1875 v 3.546875 c 0,0.234375 0,0.328125 -0.6875,0.328125 H 0.8125 V 0 c 0.125,0 0.984375,-0.03125 1.234375,-0.03125 0.21875,0 1.09375,0.03125 1.25,0.03125 V -0.25 H 3.03125 c -0.703125,0 -0.703125,-0.09375 -0.703125,-0.328125 z m 0,0"
           id="id-40da6082-00de-4bb7-8252-96ad65bea38b-9"
           inkscape:connector-curvature="0" /></symbol></g><g
       id="id-56d2a54d-a0b1-48e9-8f06-a87f1be06a49-4"><symbol
         overflow="visible"
         id="id-fccb13d2-2dfb-440c-a488-e75d51877770-3"><path
           style="stroke:none"
           d=""
           id="id-616e94c6-3474-4974-9657-640e53ba065d-6"
           inkscape:connector-curvature="0" /></symbol><symbol
         overflow="visible"
         id="id-0f558267-46ac-4fe3-80a6-38602bb58562-5"><path
           style="stroke:none"
           d="M 6.265625,-5.671875 C 6.75,-6.453125 7.171875,-6.484375 7.53125,-6.5 c 0.125,-0.015625 0.140625,-0.171875 0.140625,-0.1875 0,-0.078125 -0.0625,-0.125 -0.140625,-0.125 -0.25,0 -0.546875,0.03125 -0.8125,0.03125 -0.328125,0 -0.671875,-0.03125 -0.984375,-0.03125 -0.0625,0 -0.1875,0 -0.1875,0.1875 0,0.109375 0.078125,0.125 0.15625,0.125 0.265625,0.015625 0.453125,0.125 0.453125,0.328125 0,0.15625 -0.140625,0.375 -0.140625,0.375 l -3.0625,4.875 -0.6875,-5.28125 C 2.265625,-6.375 2.5,-6.5 2.953125,-6.5 c 0.140625,0 0.25,0 0.25,-0.203125 0,-0.078125 -0.078125,-0.109375 -0.125,-0.109375 -0.40625,0 -0.828125,0.03125 -1.25,0.03125 -0.171875,0 -0.359375,0 -0.546875,0 -0.171875,0 -0.359375,-0.03125 -0.53125,-0.03125 -0.078125,0 -0.1875,0 -0.1875,0.1875 0,0.125 0.078125,0.125 0.25,0.125 0.546875,0 0.5625,0.09375 0.59375,0.34375 L 2.1875,-0.015625 C 2.21875,0.1875 2.265625,0.21875 2.390625,0.21875 c 0.15625,0 0.203125,-0.046875 0.28125,-0.171875 z m 0,0"
           id="id-96e45516-94ba-4e36-9eec-53771d78bdf8-9"
           inkscape:connector-curvature="0" /></symbol><symbol
         overflow="visible"
         id="id-07d1c153-0e9c-484c-9af1-dd69a8b1bb2a-5"><path
           style="stroke:none"
           d=""
           id="id-9e7bc86d-62e9-4f2d-b399-a9b37ed2d0b1-4"
           inkscape:connector-curvature="0" /></symbol><symbol
         overflow="visible"
         id="id-d86be2f1-839e-4afd-8164-7aad61d2257f-9"><path
           style="stroke:none"
           d="m 2.015625,-3.296875 c 0.0625,-0.109375 0.0625,-0.171875 0.0625,-0.21875 0,-0.21875 -0.1875,-0.375 -0.40625,-0.375 -0.265625,0 -0.34375,0.21875 -0.375,0.328125 L 0.375,-0.546875 c -0.015625,0.015625 -0.046875,0.09375 -0.046875,0.109375 0,0.078125 0.21875,0.15625 0.28125,0.15625 0.046875,0 0.046875,-0.015625 0.09375,-0.125 z m 0,0"
           id="id-f7f43c38-cf4f-4f23-89f5-228ee4c4f86f-1"
           inkscape:connector-curvature="0" /></symbol></g><g
       id="id-56d2a54d-a0b1-48e9-8f06-a87f1be06a49-6"><symbol
         overflow="visible"
         id="id-fccb13d2-2dfb-440c-a488-e75d51877770-6"><path
           style="stroke:none"
           d=""
           id="id-616e94c6-3474-4974-9657-640e53ba065d-7"
           inkscape:connector-curvature="0" /></symbol><symbol
         overflow="visible"
         id="id-0f558267-46ac-4fe3-80a6-38602bb58562-8"><path
           style="stroke:none"
           d="M 6.265625,-5.671875 C 6.75,-6.453125 7.171875,-6.484375 7.53125,-6.5 c 0.125,-0.015625 0.140625,-0.171875 0.140625,-0.1875 0,-0.078125 -0.0625,-0.125 -0.140625,-0.125 -0.25,0 -0.546875,0.03125 -0.8125,0.03125 -0.328125,0 -0.671875,-0.03125 -0.984375,-0.03125 -0.0625,0 -0.1875,0 -0.1875,0.1875 0,0.109375 0.078125,0.125 0.15625,0.125 0.265625,0.015625 0.453125,0.125 0.453125,0.328125 0,0.15625 -0.140625,0.375 -0.140625,0.375 l -3.0625,4.875 -0.6875,-5.28125 C 2.265625,-6.375 2.5,-6.5 2.953125,-6.5 c 0.140625,0 0.25,0 0.25,-0.203125 0,-0.078125 -0.078125,-0.109375 -0.125,-0.109375 -0.40625,0 -0.828125,0.03125 -1.25,0.03125 -0.171875,0 -0.359375,0 -0.546875,0 -0.171875,0 -0.359375,-0.03125 -0.53125,-0.03125 -0.078125,0 -0.1875,0 -0.1875,0.1875 0,0.125 0.078125,0.125 0.25,0.125 0.546875,0 0.5625,0.09375 0.59375,0.34375 L 2.1875,-0.015625 C 2.21875,0.1875 2.265625,0.21875 2.390625,0.21875 c 0.15625,0 0.203125,-0.046875 0.28125,-0.171875 z m 0,0"
           id="id-96e45516-94ba-4e36-9eec-53771d78bdf8-4"
           inkscape:connector-curvature="0" /></symbol><symbol
         overflow="visible"
         id="id-07d1c153-0e9c-484c-9af1-dd69a8b1bb2a-1"><path
           style="stroke:none"
           d=""
           id="id-9e7bc86d-62e9-4f2d-b399-a9b37ed2d0b1-7"
           inkscape:connector-curvature="0" /></symbol><symbol
         overflow="visible"
         id="id-d86be2f1-839e-4afd-8164-7aad61d2257f-1"><path
           style="stroke:none"
           d="m 2.015625,-3.296875 c 0.0625,-0.109375 0.0625,-0.171875 0.0625,-0.21875 0,-0.21875 -0.1875,-0.375 -0.40625,-0.375 -0.265625,0 -0.34375,0.21875 -0.375,0.328125 L 0.375,-0.546875 c -0.015625,0.015625 -0.046875,0.09375 -0.046875,0.109375 0,0.078125 0.21875,0.15625 0.28125,0.15625 0.046875,0 0.046875,-0.015625 0.09375,-0.125 z m 0,0"
           id="id-f7f43c38-cf4f-4f23-89f5-228ee4c4f86f-8"
           inkscape:connector-curvature="0" /></symbol></g><g
       id="id-c90b1a27-d44f-4d73-8089-eddad255b693-8"><symbol
         overflow="visible"
         id="id-28457294-5cc3-4945-a4e9-f4dd12950228-2"><path
           style="stroke:none"
           d=""
           id="id-34ecb8f6-cf8e-4f70-8559-ebfc96fff4be-0"
           inkscape:connector-curvature="0" /></symbol><symbol
         overflow="visible"
         id="id-fbdb3559-719c-4389-858b-7b3ba4bc6aa6-7"><path
           style="stroke:none"
           d="m 3.734375,-6.125 c 0.0625,-0.234375 0.09375,-0.328125 0.28125,-0.359375 C 4.109375,-6.5 4.421875,-6.5 4.625,-6.5 c 0.703125,0 1.8125,0 1.8125,0.984375 0,0.34375 -0.15625,1.03125 -0.546875,1.421875 -0.265625,0.25 -0.78125,0.578125 -1.6875,0.578125 H 3.09375 Z m 1.4375,2.734375 c 1.015625,-0.21875 2.1875,-0.921875 2.1875,-1.921875 0,-0.859375 -0.890625,-1.5 -2.203125,-1.5 H 2.328125 c -0.203125,0 -0.296875,0 -0.296875,0.203125 C 2.03125,-6.5 2.125,-6.5 2.3125,-6.5 c 0.015625,0 0.203125,0 0.375,0.015625 0.1875,0.03125 0.265625,0.03125 0.265625,0.171875 0,0.03125 0,0.0625 -0.03125,0.1875 l -1.34375,5.34375 C 1.484375,-0.390625 1.46875,-0.3125 0.671875,-0.3125 0.5,-0.3125 0.40625,-0.3125 0.40625,-0.109375 0.40625,0 0.53125,0 0.546875,0 c 0.28125,0 0.984375,-0.03125 1.25,-0.03125 0.28125,0 1,0.03125 1.28125,0.03125 0.078125,0 0.1875,0 0.1875,-0.203125 0,-0.109375 -0.078125,-0.109375 -0.28125,-0.109375 -0.359375,0 -0.640625,0 -0.640625,-0.171875 0,-0.0625 0.015625,-0.109375 0.03125,-0.171875 l 0.65625,-2.640625 h 1.1875 c 0.90625,0 1.078125,0.5625 1.078125,0.90625 0,0.140625 -0.078125,0.453125 -0.140625,0.6875 C 5.09375,-1.421875 5,-1.0625 5,-0.859375 5,0.21875 6.203125,0.21875 6.328125,0.21875 c 0.84375,0 1.203125,-1 1.203125,-1.140625 0,-0.125 -0.109375,-0.125 -0.125,-0.125 -0.09375,0 -0.109375,0.0625 -0.125,0.140625 C 7.03125,-0.171875 6.59375,0 6.375,0 6.046875,0 5.96875,-0.21875 5.96875,-0.609375 c 0,-0.3125 0.0625,-0.8125 0.109375,-1.140625 0.015625,-0.140625 0.03125,-0.328125 0.03125,-0.46875 0,-0.765625 -0.671875,-1.078125 -0.9375,-1.171875 z m 0,0"
           id="id-dbd7228c-a7b3-4f79-a589-0d7369a3c0dd-4"
           inkscape:connector-curvature="0" /></symbol><symbol
         overflow="visible"
         id="id-ae4017d3-a10e-42ce-ac64-aa330cc23510-8"><path
           style="stroke:none"
           d=""
           id="id-a5185cd6-afee-42e8-b924-2fb9bc6067be-5"
           inkscape:connector-curvature="0" /></symbol><symbol
         overflow="visible"
         id="id-000a3716-b362-4305-a568-9fb9af47db59-8"><path
           style="stroke:none"
           d="m 1.90625,-2.328125 c 0.546875,0 0.9375,0.375 0.9375,1.125 0,0.859375 -0.515625,1.125 -0.90625,1.125 -0.28125,0 -0.90625,-0.078125 -1.1875,-0.5 0.328125,0 0.40625,-0.234375 0.40625,-0.390625 0,-0.21875 -0.171875,-0.375 -0.390625,-0.375 -0.1875,0 -0.390625,0.125 -0.390625,0.40625 0,0.65625 0.71875,1.078125 1.5625,1.078125 0.96875,0 1.640625,-0.65625 1.640625,-1.34375 0,-0.546875 -0.4375,-1.09375 -1.203125,-1.25 0.71875,-0.265625 0.984375,-0.78125 0.984375,-1.21875 0,-0.546875 -0.625,-0.953125 -1.40625,-0.953125 -0.765625,0 -1.359375,0.375 -1.359375,0.9375 0,0.234375 0.15625,0.359375 0.359375,0.359375 0.21875,0 0.359375,-0.15625 0.359375,-0.34375 0,-0.203125 -0.140625,-0.359375 -0.359375,-0.375 0.25,-0.296875 0.71875,-0.375 0.984375,-0.375 0.3125,0 0.75,0.15625 0.75,0.75 0,0.296875 -0.09375,0.625 -0.28125,0.828125 -0.21875,0.265625 -0.421875,0.28125 -0.765625,0.3125 -0.171875,0.015625 -0.1875,0.015625 -0.21875,0.015625 -0.015625,0 -0.078125,0.015625 -0.078125,0.09375 0,0.09375 0.0625,0.09375 0.1875,0.09375 z m 0,0"
           id="id-cce86cfe-ebab-4bec-8b11-caf71ae78a1f-3"
           inkscape:connector-curvature="0" /></symbol></g><g
       id="id-c90b1a27-d44f-4d73-8089-eddad255b693-1"><symbol
         overflow="visible"
         id="id-28457294-5cc3-4945-a4e9-f4dd12950228-1"><path
           style="stroke:none"
           d=""
           id="id-34ecb8f6-cf8e-4f70-8559-ebfc96fff4be-01"
           inkscape:connector-curvature="0" /></symbol><symbol
         overflow="visible"
         id="id-fbdb3559-719c-4389-858b-7b3ba4bc6aa6-8"><path
           style="stroke:none"
           d="m 3.734375,-6.125 c 0.0625,-0.234375 0.09375,-0.328125 0.28125,-0.359375 C 4.109375,-6.5 4.421875,-6.5 4.625,-6.5 c 0.703125,0 1.8125,0 1.8125,0.984375 0,0.34375 -0.15625,1.03125 -0.546875,1.421875 -0.265625,0.25 -0.78125,0.578125 -1.6875,0.578125 H 3.09375 Z m 1.4375,2.734375 c 1.015625,-0.21875 2.1875,-0.921875 2.1875,-1.921875 0,-0.859375 -0.890625,-1.5 -2.203125,-1.5 H 2.328125 c -0.203125,0 -0.296875,0 -0.296875,0.203125 C 2.03125,-6.5 2.125,-6.5 2.3125,-6.5 c 0.015625,0 0.203125,0 0.375,0.015625 0.1875,0.03125 0.265625,0.03125 0.265625,0.171875 0,0.03125 0,0.0625 -0.03125,0.1875 l -1.34375,5.34375 C 1.484375,-0.390625 1.46875,-0.3125 0.671875,-0.3125 0.5,-0.3125 0.40625,-0.3125 0.40625,-0.109375 0.40625,0 0.53125,0 0.546875,0 c 0.28125,0 0.984375,-0.03125 1.25,-0.03125 0.28125,0 1,0.03125 1.28125,0.03125 0.078125,0 0.1875,0 0.1875,-0.203125 0,-0.109375 -0.078125,-0.109375 -0.28125,-0.109375 -0.359375,0 -0.640625,0 -0.640625,-0.171875 0,-0.0625 0.015625,-0.109375 0.03125,-0.171875 l 0.65625,-2.640625 h 1.1875 c 0.90625,0 1.078125,0.5625 1.078125,0.90625 0,0.140625 -0.078125,0.453125 -0.140625,0.6875 C 5.09375,-1.421875 5,-1.0625 5,-0.859375 5,0.21875 6.203125,0.21875 6.328125,0.21875 c 0.84375,0 1.203125,-1 1.203125,-1.140625 0,-0.125 -0.109375,-0.125 -0.125,-0.125 -0.09375,0 -0.109375,0.0625 -0.125,0.140625 C 7.03125,-0.171875 6.59375,0 6.375,0 6.046875,0 5.96875,-0.21875 5.96875,-0.609375 c 0,-0.3125 0.0625,-0.8125 0.109375,-1.140625 0.015625,-0.140625 0.03125,-0.328125 0.03125,-0.46875 0,-0.765625 -0.671875,-1.078125 -0.9375,-1.171875 z m 0,0"
           id="id-dbd7228c-a7b3-4f79-a589-0d7369a3c0dd-7"
           inkscape:connector-curvature="0" /></symbol><symbol
         overflow="visible"
         id="id-ae4017d3-a10e-42ce-ac64-aa330cc23510-6"><path
           style="stroke:none"
           d=""
           id="id-a5185cd6-afee-42e8-b924-2fb9bc6067be-0"
           inkscape:connector-curvature="0" /></symbol><symbol
         overflow="visible"
         id="id-000a3716-b362-4305-a568-9fb9af47db59-0"><path
           style="stroke:none"
           d="m 1.90625,-2.328125 c 0.546875,0 0.9375,0.375 0.9375,1.125 0,0.859375 -0.515625,1.125 -0.90625,1.125 -0.28125,0 -0.90625,-0.078125 -1.1875,-0.5 0.328125,0 0.40625,-0.234375 0.40625,-0.390625 0,-0.21875 -0.171875,-0.375 -0.390625,-0.375 -0.1875,0 -0.390625,0.125 -0.390625,0.40625 0,0.65625 0.71875,1.078125 1.5625,1.078125 0.96875,0 1.640625,-0.65625 1.640625,-1.34375 0,-0.546875 -0.4375,-1.09375 -1.203125,-1.25 0.71875,-0.265625 0.984375,-0.78125 0.984375,-1.21875 0,-0.546875 -0.625,-0.953125 -1.40625,-0.953125 -0.765625,0 -1.359375,0.375 -1.359375,0.9375 0,0.234375 0.15625,0.359375 0.359375,0.359375 0.21875,0 0.359375,-0.15625 0.359375,-0.34375 0,-0.203125 -0.140625,-0.359375 -0.359375,-0.375 0.25,-0.296875 0.71875,-0.375 0.984375,-0.375 0.3125,0 0.75,0.15625 0.75,0.75 0,0.296875 -0.09375,0.625 -0.28125,0.828125 -0.21875,0.265625 -0.421875,0.28125 -0.765625,0.3125 -0.171875,0.015625 -0.1875,0.015625 -0.21875,0.015625 -0.015625,0 -0.078125,0.015625 -0.078125,0.09375 0,0.09375 0.0625,0.09375 0.1875,0.09375 z m 0,0"
           id="id-cce86cfe-ebab-4bec-8b11-caf71ae78a1f-9"
           inkscape:connector-curvature="0" /></symbol></g><g
       id="id-c90b1a27-d44f-4d73-8089-eddad255b693-4"><symbol
         overflow="visible"
         id="id-28457294-5cc3-4945-a4e9-f4dd12950228-3"><path
           style="stroke:none"
           d=""
           id="id-34ecb8f6-cf8e-4f70-8559-ebfc96fff4be-8"
           inkscape:connector-curvature="0" /></symbol><symbol
         overflow="visible"
         id="id-fbdb3559-719c-4389-858b-7b3ba4bc6aa6-4"><path
           style="stroke:none"
           d="m 3.734375,-6.125 c 0.0625,-0.234375 0.09375,-0.328125 0.28125,-0.359375 C 4.109375,-6.5 4.421875,-6.5 4.625,-6.5 c 0.703125,0 1.8125,0 1.8125,0.984375 0,0.34375 -0.15625,1.03125 -0.546875,1.421875 -0.265625,0.25 -0.78125,0.578125 -1.6875,0.578125 H 3.09375 Z m 1.4375,2.734375 c 1.015625,-0.21875 2.1875,-0.921875 2.1875,-1.921875 0,-0.859375 -0.890625,-1.5 -2.203125,-1.5 H 2.328125 c -0.203125,0 -0.296875,0 -0.296875,0.203125 C 2.03125,-6.5 2.125,-6.5 2.3125,-6.5 c 0.015625,0 0.203125,0 0.375,0.015625 0.1875,0.03125 0.265625,0.03125 0.265625,0.171875 0,0.03125 0,0.0625 -0.03125,0.1875 l -1.34375,5.34375 C 1.484375,-0.390625 1.46875,-0.3125 0.671875,-0.3125 0.5,-0.3125 0.40625,-0.3125 0.40625,-0.109375 0.40625,0 0.53125,0 0.546875,0 c 0.28125,0 0.984375,-0.03125 1.25,-0.03125 0.28125,0 1,0.03125 1.28125,0.03125 0.078125,0 0.1875,0 0.1875,-0.203125 0,-0.109375 -0.078125,-0.109375 -0.28125,-0.109375 -0.359375,0 -0.640625,0 -0.640625,-0.171875 0,-0.0625 0.015625,-0.109375 0.03125,-0.171875 l 0.65625,-2.640625 h 1.1875 c 0.90625,0 1.078125,0.5625 1.078125,0.90625 0,0.140625 -0.078125,0.453125 -0.140625,0.6875 C 5.09375,-1.421875 5,-1.0625 5,-0.859375 5,0.21875 6.203125,0.21875 6.328125,0.21875 c 0.84375,0 1.203125,-1 1.203125,-1.140625 0,-0.125 -0.109375,-0.125 -0.125,-0.125 -0.09375,0 -0.109375,0.0625 -0.125,0.140625 C 7.03125,-0.171875 6.59375,0 6.375,0 6.046875,0 5.96875,-0.21875 5.96875,-0.609375 c 0,-0.3125 0.0625,-0.8125 0.109375,-1.140625 0.015625,-0.140625 0.03125,-0.328125 0.03125,-0.46875 0,-0.765625 -0.671875,-1.078125 -0.9375,-1.171875 z m 0,0"
           id="id-dbd7228c-a7b3-4f79-a589-0d7369a3c0dd-0"
           inkscape:connector-curvature="0" /></symbol><symbol
         overflow="visible"
         id="id-ae4017d3-a10e-42ce-ac64-aa330cc23510-0"><path
           style="stroke:none"
           d=""
           id="id-a5185cd6-afee-42e8-b924-2fb9bc6067be-9"
           inkscape:connector-curvature="0" /></symbol><symbol
         overflow="visible"
         id="id-000a3716-b362-4305-a568-9fb9af47db59-3"><path
           style="stroke:none"
           d="m 1.90625,-2.328125 c 0.546875,0 0.9375,0.375 0.9375,1.125 0,0.859375 -0.515625,1.125 -0.90625,1.125 -0.28125,0 -0.90625,-0.078125 -1.1875,-0.5 0.328125,0 0.40625,-0.234375 0.40625,-0.390625 0,-0.21875 -0.171875,-0.375 -0.390625,-0.375 -0.1875,0 -0.390625,0.125 -0.390625,0.40625 0,0.65625 0.71875,1.078125 1.5625,1.078125 0.96875,0 1.640625,-0.65625 1.640625,-1.34375 0,-0.546875 -0.4375,-1.09375 -1.203125,-1.25 0.71875,-0.265625 0.984375,-0.78125 0.984375,-1.21875 0,-0.546875 -0.625,-0.953125 -1.40625,-0.953125 -0.765625,0 -1.359375,0.375 -1.359375,0.9375 0,0.234375 0.15625,0.359375 0.359375,0.359375 0.21875,0 0.359375,-0.15625 0.359375,-0.34375 0,-0.203125 -0.140625,-0.359375 -0.359375,-0.375 0.25,-0.296875 0.71875,-0.375 0.984375,-0.375 0.3125,0 0.75,0.15625 0.75,0.75 0,0.296875 -0.09375,0.625 -0.28125,0.828125 -0.21875,0.265625 -0.421875,0.28125 -0.765625,0.3125 -0.171875,0.015625 -0.1875,0.015625 -0.21875,0.015625 -0.015625,0 -0.078125,0.015625 -0.078125,0.09375 0,0.09375 0.0625,0.09375 0.1875,0.09375 z m 0,0"
           id="id-cce86cfe-ebab-4bec-8b11-caf71ae78a1f-7"
           inkscape:connector-curvature="0" /></symbol></g><g
       id="id-1d74063f-dbfe-41da-b9e2-d42d560e2cfd-4"><symbol
         overflow="visible"
         id="id-688155c5-5b63-4888-ab81-dcc928616bf0-2"><path
           style="stroke:none"
           d=""
           id="id-3d2ea7bf-8341-46e6-8d81-a9bce5d78114-1"
           inkscape:connector-curvature="0" /></symbol><symbol
         overflow="visible"
         id="id-2cdb057e-4c58-4e16-a583-2cdd6b8f6426-9"><path
           style="stroke:none"
           d="m 3.734375,-6.125 c 0.0625,-0.234375 0.09375,-0.328125 0.28125,-0.359375 C 4.109375,-6.5 4.421875,-6.5 4.625,-6.5 c 0.703125,0 1.8125,0 1.8125,0.984375 0,0.34375 -0.15625,1.03125 -0.546875,1.421875 -0.265625,0.25 -0.78125,0.578125 -1.6875,0.578125 H 3.09375 Z m 1.4375,2.734375 c 1.015625,-0.21875 2.1875,-0.921875 2.1875,-1.921875 0,-0.859375 -0.890625,-1.5 -2.203125,-1.5 H 2.328125 c -0.203125,0 -0.296875,0 -0.296875,0.203125 C 2.03125,-6.5 2.125,-6.5 2.3125,-6.5 c 0.015625,0 0.203125,0 0.375,0.015625 0.1875,0.03125 0.265625,0.03125 0.265625,0.171875 0,0.03125 0,0.0625 -0.03125,0.1875 l -1.34375,5.34375 C 1.484375,-0.390625 1.46875,-0.3125 0.671875,-0.3125 0.5,-0.3125 0.40625,-0.3125 0.40625,-0.109375 0.40625,0 0.53125,0 0.546875,0 c 0.28125,0 0.984375,-0.03125 1.25,-0.03125 0.28125,0 1,0.03125 1.28125,0.03125 0.078125,0 0.1875,0 0.1875,-0.203125 0,-0.109375 -0.078125,-0.109375 -0.28125,-0.109375 -0.359375,0 -0.640625,0 -0.640625,-0.171875 0,-0.0625 0.015625,-0.109375 0.03125,-0.171875 l 0.65625,-2.640625 h 1.1875 c 0.90625,0 1.078125,0.5625 1.078125,0.90625 0,0.140625 -0.078125,0.453125 -0.140625,0.6875 C 5.09375,-1.421875 5,-1.0625 5,-0.859375 5,0.21875 6.203125,0.21875 6.328125,0.21875 c 0.84375,0 1.203125,-1 1.203125,-1.140625 0,-0.125 -0.109375,-0.125 -0.125,-0.125 -0.09375,0 -0.109375,0.0625 -0.125,0.140625 C 7.03125,-0.171875 6.59375,0 6.375,0 6.046875,0 5.96875,-0.21875 5.96875,-0.609375 c 0,-0.3125 0.0625,-0.8125 0.109375,-1.140625 0.015625,-0.140625 0.03125,-0.328125 0.03125,-0.46875 0,-0.765625 -0.671875,-1.078125 -0.9375,-1.171875 z m 0,0"
           id="id-f2413c72-e1c3-410f-934f-61b5c6aff4bb-2"
           inkscape:connector-curvature="0" /></symbol><symbol
         overflow="visible"
         id="id-2d6f78e4-2aac-40b6-9cae-e270d51e2380-4"><path
           style="stroke:none"
           d=""
           id="id-8399e340-6aea-4b0d-94b8-3d4c8065fbe4-5"
           inkscape:connector-curvature="0" /></symbol><symbol
         overflow="visible"
         id="id-8abe00c3-9b8c-466b-8f2a-e7840d3c277c-8"><path
           style="stroke:none"
           d="M 3.515625,-1.265625 H 3.28125 c -0.015625,0.15625 -0.09375,0.5625 -0.1875,0.625 C 3.046875,-0.59375 2.515625,-0.59375 2.40625,-0.59375 H 1.125 c 0.734375,-0.640625 0.984375,-0.84375 1.390625,-1.171875 0.515625,-0.40625 1,-0.84375 1,-1.5 0,-0.84375 -0.734375,-1.359375 -1.625,-1.359375 -0.859375,0 -1.453125,0.609375 -1.453125,1.25 0,0.34375 0.296875,0.390625 0.375,0.390625 0.15625,0 0.359375,-0.125 0.359375,-0.375 0,-0.125 -0.046875,-0.375 -0.40625,-0.375 C 0.984375,-4.21875 1.453125,-4.375 1.78125,-4.375 c 0.703125,0 1.0625,0.546875 1.0625,1.109375 0,0.609375 -0.4375,1.078125 -0.65625,1.328125 L 0.515625,-0.265625 C 0.4375,-0.203125 0.4375,-0.1875 0.4375,0 h 2.875 z m 0,0"
           id="id-2258efac-6eae-48b5-b362-d7e68fe9c74a-6"
           inkscape:connector-curvature="0" /></symbol></g><g
       id="id-1d74063f-dbfe-41da-b9e2-d42d560e2cfd-8"><symbol
         overflow="visible"
         id="id-688155c5-5b63-4888-ab81-dcc928616bf0-7"><path
           style="stroke:none"
           d=""
           id="id-3d2ea7bf-8341-46e6-8d81-a9bce5d78114-15"
           inkscape:connector-curvature="0" /></symbol><symbol
         overflow="visible"
         id="id-2cdb057e-4c58-4e16-a583-2cdd6b8f6426-5"><path
           style="stroke:none"
           d="m 3.734375,-6.125 c 0.0625,-0.234375 0.09375,-0.328125 0.28125,-0.359375 C 4.109375,-6.5 4.421875,-6.5 4.625,-6.5 c 0.703125,0 1.8125,0 1.8125,0.984375 0,0.34375 -0.15625,1.03125 -0.546875,1.421875 -0.265625,0.25 -0.78125,0.578125 -1.6875,0.578125 H 3.09375 Z m 1.4375,2.734375 c 1.015625,-0.21875 2.1875,-0.921875 2.1875,-1.921875 0,-0.859375 -0.890625,-1.5 -2.203125,-1.5 H 2.328125 c -0.203125,0 -0.296875,0 -0.296875,0.203125 C 2.03125,-6.5 2.125,-6.5 2.3125,-6.5 c 0.015625,0 0.203125,0 0.375,0.015625 0.1875,0.03125 0.265625,0.03125 0.265625,0.171875 0,0.03125 0,0.0625 -0.03125,0.1875 l -1.34375,5.34375 C 1.484375,-0.390625 1.46875,-0.3125 0.671875,-0.3125 0.5,-0.3125 0.40625,-0.3125 0.40625,-0.109375 0.40625,0 0.53125,0 0.546875,0 c 0.28125,0 0.984375,-0.03125 1.25,-0.03125 0.28125,0 1,0.03125 1.28125,0.03125 0.078125,0 0.1875,0 0.1875,-0.203125 0,-0.109375 -0.078125,-0.109375 -0.28125,-0.109375 -0.359375,0 -0.640625,0 -0.640625,-0.171875 0,-0.0625 0.015625,-0.109375 0.03125,-0.171875 l 0.65625,-2.640625 h 1.1875 c 0.90625,0 1.078125,0.5625 1.078125,0.90625 0,0.140625 -0.078125,0.453125 -0.140625,0.6875 C 5.09375,-1.421875 5,-1.0625 5,-0.859375 5,0.21875 6.203125,0.21875 6.328125,0.21875 c 0.84375,0 1.203125,-1 1.203125,-1.140625 0,-0.125 -0.109375,-0.125 -0.125,-0.125 -0.09375,0 -0.109375,0.0625 -0.125,0.140625 C 7.03125,-0.171875 6.59375,0 6.375,0 6.046875,0 5.96875,-0.21875 5.96875,-0.609375 c 0,-0.3125 0.0625,-0.8125 0.109375,-1.140625 0.015625,-0.140625 0.03125,-0.328125 0.03125,-0.46875 0,-0.765625 -0.671875,-1.078125 -0.9375,-1.171875 z m 0,0"
           id="id-f2413c72-e1c3-410f-934f-61b5c6aff4bb-8"
           inkscape:connector-curvature="0" /></symbol><symbol
         overflow="visible"
         id="id-2d6f78e4-2aac-40b6-9cae-e270d51e2380-5"><path
           style="stroke:none"
           d=""
           id="id-8399e340-6aea-4b0d-94b8-3d4c8065fbe4-6"
           inkscape:connector-curvature="0" /></symbol><symbol
         overflow="visible"
         id="id-8abe00c3-9b8c-466b-8f2a-e7840d3c277c-7"><path
           style="stroke:none"
           d="M 3.515625,-1.265625 H 3.28125 c -0.015625,0.15625 -0.09375,0.5625 -0.1875,0.625 C 3.046875,-0.59375 2.515625,-0.59375 2.40625,-0.59375 H 1.125 c 0.734375,-0.640625 0.984375,-0.84375 1.390625,-1.171875 0.515625,-0.40625 1,-0.84375 1,-1.5 0,-0.84375 -0.734375,-1.359375 -1.625,-1.359375 -0.859375,0 -1.453125,0.609375 -1.453125,1.25 0,0.34375 0.296875,0.390625 0.375,0.390625 0.15625,0 0.359375,-0.125 0.359375,-0.375 0,-0.125 -0.046875,-0.375 -0.40625,-0.375 C 0.984375,-4.21875 1.453125,-4.375 1.78125,-4.375 c 0.703125,0 1.0625,0.546875 1.0625,1.109375 0,0.609375 -0.4375,1.078125 -0.65625,1.328125 L 0.515625,-0.265625 C 0.4375,-0.203125 0.4375,-0.1875 0.4375,0 h 2.875 z m 0,0"
           id="id-2258efac-6eae-48b5-b362-d7e68fe9c74a-9"
           inkscape:connector-curvature="0" /></symbol></g></defs><sodipodi:namedview
     pagecolor="#ffffff"
     bordercolor="#666666"
     borderopacity="1"
     objecttolerance="10"
     gridtolerance="10"
     guidetolerance="10"
     inkscape:pageopacity="0"
     inkscape:pageshadow="2"
     inkscape:window-width="1920"
     inkscape:window-height="1016"
     id="namedview4157"
     showgrid="false"
     showguides="true"
     inkscape:guide-bbox="true"
     inkscape:snap-nodes="true"
     inkscape:snap-global="false"
     inkscape:snap-bbox="true"
     inkscape:snap-intersection-paths="true"
     inkscape:object-paths="true"
     inkscape:object-nodes="true"
     inkscape:zoom="2.5600001"
     inkscape:cx="131.73835"
     inkscape:cy="95.967296"
     inkscape:window-x="0"
     inkscape:window-y="27"
     inkscape:window-maximized="1"
     inkscape:current-layer="g4163"
     units="cm"><sodipodi:guide
       position="17.953884,166.28058"
       orientation="1,0"
       id="guide8907"
       inkscape:locked="false" /></sodipodi:namedview><g
     id="g4163"
     inkscape:groupmode="layer"
     inkscape:label="ink_ext_XXXXXX"
     transform="matrix(1.25,0,0,-1.25,0,205.38375)">



















<rect
   style="fill:#000000;stroke-width:0.75"
   id="rect544"
   width="51.5625"
   height="72.363281"
   x="55.371094"
   y="-155.56628"
   transform="scale(1,-1)"
   ry="0" /><path
   style="fill:#ffffff;stroke-width:0.39062497"
   d="M 73.925852,59.983866 V 11.936993 h 34.179688 34.17968 V 59.983866 108.03074 H 108.10554 73.925852 Z"
   id="path546"
   inkscape:connector-curvature="0"
   transform="matrix(0.75000002,0,0,-0.75000002,0,164.307)" /><rect
   style="fill:#00ffff;stroke-width:1.21621394;image-rendering:auto"
   width="51.855469"
   height="65"
   x="-107.40715"
   y="82.870491"
   transform="matrix(-0.99999162,-0.00409282,-0.00409282,0.99999162,0,0)"
   inkscape:label="#rect589"
   id="h1" /><rect
   style="fill:#000000;stroke-width:0.75"
   id="rect544-0"
   width="51.5625"
   height="72.363281"
   x="110.88867"
   y="-112.06042"
   ry="0"
   transform="scale(1,-1)" /><path
   style="fill:#ffffff;stroke-width:0.29296872"
   d="m 110.96196,75.813226 v 36.035164 h 25.63477 25.63476 V 75.813226 39.778071 h -25.63476 -25.63477 z"
   id="path546-9"
   inkscape:connector-curvature="0" /><rect
   style="fill:#00ffff;stroke-width:1.22165561"
   id="h2"
   width="51.855469"
   height="65"
   x="-162.94322"
   y="38.764912"
   transform="matrix(-0.99997677,-0.00681591,-0.00681591,0.99997677,0,0)"
   inkscape:label="#rect589-3" /><rect
   style="fill:#000000;stroke-width:0.75"
   id="rect544-6"
   width="51.5625"
   height="72.363281"
   x="165.9668"
   y="-76.025269"
   ry="0"
   transform="scale(1,-1)" /><path
   style="fill:#ffffff;stroke-width:0.29296872"
   d="m 166.04009,39.778069 v 36.03516 h 25.63477 25.63476 V 39.778069 3.7429157 h -25.63476 -25.63477 z"
   id="path546-0"
   inkscape:connector-curvature="0" /><rect
   style="fill:#00ffff;stroke-width:0.7238875"
   id="h3"
   width="51.855469"
   height="65"
   x="-217.4268"
   y="4.9004445"
   transform="matrix(-0.9999791,0.00646538,0.00646538,0.9999791,0,0)"
   inkscape:label="#rect589-6" /></g></svg>